<svg id="Layer_1" enable-background="new 0 0 511.069 511.069" height="512" viewBox="0 0 511.069 511.069" width="512" xmlns="http://www.w3.org/2000/svg"><g><g><path d="m336.207 0h-80.672l-10.667 255.999 10.667 219.358 80.454 35.712v-68.892h.218c62.859 0 114-51.14 114-114v-214.177c0-62.86-51.141-114-114-114z" fill="#fdb902"/><path d="m174.863 0c-62.86 0-114 51.14-114 114v214.177c0 62.86 51.14 114 114 114h5.922l74.75 33.18v-475.357z" fill="#fdd902"/></g><g><path d="m275.286 300.208c0-10.908-8.843-19.751-19.751-19.751l-10.667 18.209 10.667 21.293c10.908.001 19.751-8.842 19.751-19.751z" fill="#f7f0eb"/><path d="m270.665 261.255v-140.218h-15.13l-10.667 70.962 10.667 69.256z" fill="#f7f0eb"/><g fill="#fffbf5"><path d="m255.534 280.457c-10.908 0-19.751 8.843-19.751 19.751s8.843 19.751 19.751 19.751z"/><path d="m240.665 121.037h14.87v140.219h-14.87z"/></g></g></g></svg>