<?xml version="1.0" encoding="iso-8859-1"?>
<!-- Generator: Adobe Illustrator 19.0.0, SVG Export Plug-In . SVG Version: 6.00 Build 0)  -->
<svg version="1.1" id="Capa_1" xmlns="http://www.w3.org/2000/svg" xmlns:xlink="http://www.w3.org/1999/xlink" x="0px" y="0px"
	 viewBox="0 0 512 512" style="enable-background:new 0 0 512 512;" xml:space="preserve">
<ellipse style="fill:#D3CDBF;" cx="256" cy="473.605" rx="179.2" ry="38.395"/>
<path style="fill:#FF5368;" d="M256,0C155.01,0,73.143,81.86,73.143,182.841c0,36.197,10.519,69.938,28.668,98.332l128.546,201.111
	c11.968,18.724,39.318,18.724,51.285,0l128.546-201.111c18.15-28.394,28.669-62.134,28.669-98.332C438.857,81.86,356.99,0,256,0z
	 M256,294.117c-62.585,0-113.32-50.735-113.32-113.32S193.415,67.477,256,67.477s113.32,50.735,113.32,113.32
	S318.585,294.117,256,294.117z"/>
<g>
	<path style="fill:#C5324F;" d="M337.399,19.085c-8.273,13.574-4.903,31.451,8.164,41.002
		c39.065,28.556,62.389,74.444,62.389,122.753c0,29.078-8.231,57.324-23.802,81.686L255.603,465.639
		c-6.107,9.554-6.294,21.192-1.52,30.626c10.451,0.649,21.187-4.01,27.559-13.981l128.546-201.112
		c18.149-28.394,28.668-62.134,28.668-98.332C438.857,111.105,397.535,49.029,337.399,19.085z"/>
	<path style="fill:#C5324F;" d="M142.68,180.797c0-30.887,12.363-58.883,32.404-79.324l0,0c-12.684-12.435-33.78-9.936-42.917,5.297
		c-13.291,22.155-20.392,47.575-20.392,74.027c0,67.799,47.027,124.824,110.175,140.165c17.347,4.216,34.051-8.993,34.051-26.845
		C193.415,294.117,142.68,243.381,142.68,180.797z"/>
</g>
<path style="fill:#FF5368;" d="M301.396,242.093h-90.793c-4.624,0-8.214-4.036-7.674-8.629l8.485-72.114
	c0.457-3.891,3.755-6.824,7.674-6.824h73.824c3.918,0,7.215,2.933,7.674,6.824l8.485,72.114
	C309.611,238.056,306.021,242.093,301.396,242.093z"/>
<path style="fill:#C5324F;" d="M309.07,233.463l-8.485-72.113c-0.457-3.891-3.756-6.824-7.674-6.824h-24.248l6.667,56.661h-69.779
	l-2.621,22.276c-0.541,4.594,3.048,8.63,7.674,8.63h90.793C306.021,242.093,309.611,238.056,309.07,233.463z"/>
<path style="fill:#D3CDBF;" d="M276.604,182.389c-4.267,0-7.726-3.458-7.726-7.726v-56.194c0-7.101-5.776-12.877-12.877-12.877
	c-7.101,0-12.877,5.776-12.877,12.877v56.194c0,4.268-3.459,7.726-7.726,7.726c-4.267,0-7.726-3.458-7.726-7.726v-56.194
	c0-15.621,12.708-28.33,28.33-28.33s28.33,12.709,28.33,28.33v56.194C284.33,178.93,280.871,182.389,276.604,182.389z"/>
<g>
</g>
<g>
</g>
<g>
</g>
<g>
</g>
<g>
</g>
<g>
</g>
<g>
</g>
<g>
</g>
<g>
</g>
<g>
</g>
<g>
</g>
<g>
</g>
<g>
</g>
<g>
</g>
<g>
</g>
</svg>
