<svg xmlns="http://www.w3.org/2000/svg" width="1080" height="1080" viewBox="0 0 1080 1080" version="1.1">
	<path d="M 0 540.001 L 0 1080.002 540.250 1079.751 L 1080.500 1079.500 1080.751 539.750 L 1081.002 -0 540.501 -0 L 0 0 0 540.001 M 0.496 540.500 C 0.496 837.500, 0.610 958.851, 0.750 810.168 C 0.890 661.485, 0.890 418.485, 0.750 270.168 C 0.610 121.851, 0.496 243.500, 0.496 540.500 M 512.500 112.078 C 415.628 121.233, 330.086 172.576, 276.139 253.943 C 248.134 296.182, 231.647 341.664, 224.825 395.500 C 222.710 412.190, 223.286 455.302, 225.880 474.500 C 239.711 576.855, 293.892 687.322, 388.500 806.054 C 422.478 848.698, 469.197 899.861, 504.873 933.500 C 525.867 953.295, 530.082 956.005, 539.864 955.990 C 550.467 955.975, 553.782 953.827, 576.500 932.251 C 637.632 874.193, 701.874 798.079, 747.845 729.241 C 808.719 638.087, 843.852 553.606, 854.614 472.500 C 856.717 456.647, 857.514 420.215, 856.104 404.304 C 851.191 348.842, 833.564 298.171, 803.469 253 C 752.179 176.014, 672.275 126.133, 580 113.495 C 566.099 111.591, 526.454 110.759, 512.500 112.078 M 567.994 252.883 C 560.483 255.321, 559.489 256.573, 498.248 340.781 C 464.710 386.897, 436.727 425.642, 436.063 426.882 C 435.400 428.121, 434.857 431.656, 434.857 434.736 C 434.857 441.685, 438.338 447.205, 444.907 450.673 C 449.210 452.945, 449.964 453, 476.657 453 C 502.441 453, 504 453.104, 504 454.822 C 504 456.974, 489.517 568.179, 487.854 578.796 C 486.982 584.360, 486.993 587.034, 487.901 590.062 C 490.564 598.952, 499.386 604.698, 508.957 603.778 C 516.681 603.036, 520.698 599.712, 528.208 587.850 C 531.812 582.157, 559.420 538.350, 589.560 490.500 C 642.962 405.717, 644.370 403.354, 644.797 397.788 C 645.404 389.872, 642.137 384.244, 634.818 380.597 L 629.607 378 602.804 378 C 588.062 378, 576 377.800, 576 377.555 C 576 377.310, 579.600 354.251, 584 326.313 C 588.400 298.375, 592 273.302, 592 270.596 C 592 261.169, 584.800 253.582, 574.856 252.530 C 572.460 252.277, 569.372 252.436, 567.994 252.883" stroke="none" fill="black" fill-rule="evenodd"/>
</svg>