<svg xmlns="http://www.w3.org/2000/svg" width="800" height="800" viewBox="0 0 800 800" version="1.1">
	<path d="M 351 102.088 C 335.681 104.054, 322.120 107.995, 309.499 114.149 C 297.907 119.801, 291.281 126.940, 282.721 143 C 277.291 153.187, 269.717 171.026, 265.526 183.500 C 264.786 185.700, 263.228 189.975, 262.063 193 C 260.898 196.025, 258.375 204.350, 256.458 211.500 C 254.540 218.650, 252.087 227.650, 251.006 231.500 C 249.925 235.350, 246.998 246.825, 244.502 257 C 242.006 267.175, 239.425 277.686, 238.766 280.357 C 237.365 286.031, 236.580 286.467, 226 287.450 C 221.875 287.833, 214.225 288.767, 209 289.525 C 192.888 291.863, 179.335 292.922, 158.010 293.510 C 130.520 294.268, 121.845 295.580, 110 300.769 C 104.186 303.317, 101.584 306.205, 102.351 309.261 C 103.091 312.212, 125.106 333.095, 135.949 341.132 C 137.902 342.579, 141.300 345.463, 143.500 347.539 C 155.388 358.761, 200.598 394.984, 218.113 407.322 C 224.272 411.661, 224.768 412.293, 225.352 416.554 C 225.697 419.070, 226.718 424.190, 227.622 427.932 L 229.264 434.736 225.231 438.769 C 223.012 440.988, 220.895 443.755, 220.526 444.918 C 220.157 446.082, 218.347 447.664, 216.505 448.433 C 214.663 449.203, 212.364 451.041, 211.396 452.519 C 209.716 455.082, 209.716 455.506, 211.401 461.852 C 213.333 469.132, 217.108 475, 219.860 475 C 220.827 475, 222.491 475.661, 223.559 476.468 C 224.626 477.276, 226.299 477.951, 227.275 477.968 C 228.273 477.986, 229.506 479.202, 230.094 480.748 C 230.669 482.260, 231.895 484.332, 232.820 485.353 C 234.324 487.015, 234.509 490.951, 234.588 522.855 C 234.704 569.275, 236.099 578.547, 246.164 599.766 C 255.379 619.192, 273.674 644.521, 292.400 663.780 C 299.253 670.827, 303.948 676.412, 303.420 676.887 C 302.914 677.342, 298.900 679.183, 294.500 680.978 C 285.899 684.486, 278.807 687.887, 278 688.890 C 277.725 689.232, 275.700 690.828, 273.500 692.438 C 261.587 701.153, 233.447 732.113, 235.538 734.204 C 235.776 734.443, 237.749 734.382, 239.922 734.069 C 243.159 733.603, 244.459 732.689, 247.116 729.011 C 256.717 715.721, 278.954 695.958, 289.527 691.317 C 292.262 690.117, 297.156 687.973, 300.402 686.553 C 303.649 685.133, 306.485 684.152, 306.706 684.373 C 307.196 684.862, 294.856 693.076, 290 695.494 C 284.426 698.269, 279.997 701.959, 280.031 703.801 C 280.083 706.608, 284.517 708.982, 293.293 710.899 C 303.498 713.130, 305.535 714.180, 307.606 718.280 C 308.501 720.051, 310.995 723.862, 313.149 726.750 C 316.440 731.162, 317.573 732, 320.245 732 L 323.425 732 318.820 727.250 C 316.287 724.637, 313.439 720.925, 312.491 719 C 308.905 711.723, 304.663 708.692, 296.500 707.576 C 289.711 706.648, 284.827 705.019, 285.228 703.817 C 285.410 703.271, 288.470 701.222, 292.029 699.264 C 299.174 695.334, 308.592 689.154, 314.026 684.831 L 317.552 682.025 328.526 687.592 C 341.282 694.063, 340.073 692.093, 345.488 715.250 L 349.170 731 356.835 730.967 L 364.500 730.935 359.158 729.090 C 356.220 728.075, 353.222 726.628, 352.494 725.873 C 351.126 724.452, 346.457 706.612, 345.361 698.614 L 344.737 694.064 348.118 695.093 C 353.778 696.816, 374.889 697.356, 386.997 696.089 C 411.478 693.525, 428.932 685.919, 447.165 669.867 C 450.831 666.640, 454.093 664, 454.415 664 C 455.893 664, 454.873 674.672, 453.145 677.293 C 443.458 691.985, 404.013 720.818, 383 728.568 C 379.978 729.683, 382.982 729.867, 405 729.921 L 430.500 729.982 435.895 721.241 C 455.991 688.685, 458.987 681.823, 459.023 668.282 C 459.046 659.613, 459.093 659.448, 462.656 655.500 C 464.641 653.300, 468.217 649.274, 470.602 646.552 C 472.987 643.831, 475.093 641.806, 475.282 642.052 C 475.471 642.299, 477.816 646.100, 480.492 650.500 C 486.986 661.175, 487.106 661.322, 503.056 678.124 L 516.939 692.748 513.219 693.363 C 507.596 694.293, 501.457 694.122, 498.315 692.949 C 495.122 691.756, 493.906 690.400, 486.925 680.250 C 480.994 671.626, 479.390 671.243, 474.177 677.205 C 472.155 679.518, 466.900 685.258, 462.500 689.961 C 458.100 694.664, 451.052 703.684, 446.838 710.006 C 442.625 716.328, 437.748 723.413, 436.002 725.750 L 432.827 730 435.663 729.990 C 438.086 729.982, 439.157 728.944, 443 722.885 C 451.721 709.134, 461.599 696.158, 470.668 686.539 L 479.835 676.814 484.347 683.657 C 486.828 687.421, 490.269 691.850, 491.992 693.500 C 495.024 696.402, 495.475 696.509, 505.813 696.787 C 511.691 696.945, 518.486 696.714, 520.914 696.274 L 525.329 695.474 519.526 689.987 C 508.118 679.200, 491.732 660.397, 486.907 652.558 C 484.208 648.172, 482 644.274, 482 643.897 C 482 643.519, 486.163 644.466, 491.250 646.001 C 496.337 647.537, 505.225 650.220, 511 651.964 C 523.485 655.735, 534.712 659.050, 549 663.184 C 554.775 664.855, 561.750 667.361, 564.500 668.752 C 584.434 678.839, 610.995 704.802, 623.652 726.574 C 628.349 734.654, 628.617 734.915, 632.250 734.957 C 634.313 734.981, 636 734.769, 636 734.486 C 636 732.647, 626.905 717.888, 620.603 709.500 C 607.703 692.330, 593.058 678.254, 577.035 667.624 C 567.046 660.997, 561.932 658.980, 536 651.438 C 507.303 643.092, 486.674 636.850, 485.218 636.070 C 484.297 635.578, 485.311 633.565, 488.809 628.942 C 511.032 599.571, 528.874 565.002, 536.705 536.146 L 539.387 526.261 546.444 525.642 C 556.596 524.752, 561.049 523.228, 564.651 519.409 C 567.755 516.117, 570 509.368, 570 503.327 C 570 501.911, 571.998 494.846, 574.441 487.626 C 580.643 469.293, 581.820 464.068, 582.578 451.500 C 583.239 440.537, 583.254 440.486, 586.974 436.500 C 598.374 424.282, 623.069 386.788, 630.947 369.736 C 641.636 346.600, 648.967 314.696, 646.166 303.500 C 641.671 285.527, 636.389 276.414, 623.116 263.733 C 613.697 254.734, 600.772 247.968, 587.322 244.994 C 571.903 241.585, 540.524 242.947, 518.752 247.970 C 511.063 249.744, 510.944 249.675, 504.509 239.745 C 501.213 234.660, 498.012 229.600, 497.394 228.500 C 496.776 227.400, 494.177 222.822, 491.619 218.326 C 489.060 213.831, 485.147 205.779, 482.922 200.434 C 470.274 170.044, 448.130 135.495, 431.674 120.475 C 420.398 110.185, 410.007 105.543, 391.427 102.498 C 381.862 100.930, 361.618 100.725, 351 102.088 M 353.882 148.061 C 352.956 149.019, 349.746 150.050, 346.382 150.468 C 338.996 151.386, 326.624 155.326, 321.908 158.263 C 317.162 161.219, 312.243 165.623, 308.250 170.492 C 297.591 183.490, 313.461 188.332, 334.332 178.450 C 339.293 176.101, 339.500 175.842, 339.500 171.983 C 339.500 168.792, 339.271 168.276, 338.390 169.482 C 336.993 171.392, 332.623 171.455, 331.073 169.588 C 330.156 168.483, 330.474 166.797, 332.538 161.838 C 333.988 158.352, 335.751 154.900, 336.456 154.167 C 337.161 153.434, 340.496 152.584, 343.869 152.278 C 349.614 151.757, 350 151.855, 350 153.831 C 350 155.482, 348.355 156.700, 342.409 159.447 C 335.287 162.737, 333.604 164.701, 336.952 165.817 C 337.681 166.060, 338.001 165.811, 337.663 165.263 C 336.761 163.804, 340.147 161.121, 343.816 160.387 C 347.727 159.605, 347.871 160.704, 344.250 163.700 L 341.500 165.975 344.863 168.804 C 347.737 171.222, 348.026 171.840, 346.851 173.066 C 345.145 174.846, 344.323 187, 345.908 187 C 346.509 187, 347 186.357, 347 185.571 C 347 184.786, 347.707 183.436, 348.571 182.571 C 349.896 181.247, 353.313 181, 370.349 181 C 391.796 181, 395 180.357, 395 176.050 C 395 173.923, 393.958 173.416, 387.628 172.467 C 385.083 172.085, 383 171.311, 383 170.747 C 383 168.937, 386.402 167.065, 389.750 167.032 C 392.841 167.002, 393 166.814, 393 163.200 C 393 161.110, 393.480 158.920, 394.067 158.333 C 394.824 157.576, 394.678 157.090, 393.567 156.664 C 392.471 156.244, 392 156.655, 392 158.031 C 392 159.114, 391.378 160, 390.619 160 C 389.859 160, 387.970 161.688, 386.420 163.750 C 381.223 170.667, 378 172.690, 378 169.035 C 378 166.670, 383.342 160.373, 387.500 157.837 C 389.330 156.721, 389.870 156.006, 388.885 156.004 C 387.997 156.002, 386.126 156.900, 384.727 158 C 381.961 160.176, 379.474 160.575, 378.500 159 C 378.160 158.450, 376.784 158, 375.441 158 C 372.504 158, 372.191 155.581, 374.750 152.659 C 376.689 150.446, 377.132 150.390, 369.986 153.253 C 367.911 154.084, 366.795 153.801, 363.597 151.630 C 361.465 150.184, 359.131 149, 358.410 149 C 357.689 149, 356.740 148.411, 356.300 147.692 C 355.663 146.651, 355.170 146.726, 353.882 148.061 M 356.035 153.934 C 354.782 156.276, 354.697 158.695, 355.844 159.403 C 356.308 159.690, 358.333 159.471, 360.344 158.916 C 364.808 157.683, 365.396 154.481, 361.435 152.975 C 357.859 151.616, 357.215 151.730, 356.035 153.934 M 326.882 157.503 C 323.996 159.071, 323 162.308, 323 170.125 C 323 178.247, 325.386 176.399, 328.970 165.500 C 330.237 161.650, 331.484 157.938, 331.743 157.250 C 332.361 155.610, 330.154 155.725, 326.882 157.503 M 352.816 163.504 C 351.145 167.172, 352.478 167.652, 357.522 165.202 C 363.074 162.504, 363.238 161, 357.979 161 C 354.658 161, 353.758 161.436, 352.816 163.504 M 365.477 164.339 C 356.190 168.519, 350.761 171.805, 351.409 172.853 C 351.698 173.321, 355.437 173.526, 359.717 173.309 C 372.599 172.655, 373.442 172.392, 375.320 168.454 C 379.233 160.249, 376.813 159.237, 365.477 164.339 M 318.263 163.250 C 317.723 163.938, 317.001 165.980, 316.658 167.788 C 316.193 170.244, 316.427 171.227, 317.585 171.671 C 319.779 172.513, 320.797 171.131, 321.577 166.250 C 322.123 162.831, 321.961 162, 320.750 162 C 319.922 162, 318.803 162.563, 318.263 163.250 M 327.241 174.986 C 326.558 176.079, 326 177.684, 326 178.554 C 326 180.361, 328.861 179.828, 332.911 177.267 L 335.322 175.743 332.911 174.407 C 329.615 172.580, 328.684 172.676, 327.241 174.986 M 377.917 173.364 C 377.688 173.565, 371.914 174.011, 365.087 174.356 C 353.043 174.965, 348 176.343, 348 179.023 C 348 180.133, 380.792 180.259, 388 179.176 C 391.600 178.635, 392.500 178.102, 392.500 176.510 C 392.500 175.108, 391.614 174.330, 389.500 173.878 C 386.094 173.150, 378.545 172.815, 377.917 173.364 M 313.163 177.012 C 307.407 179.624, 308.176 181.421, 315.211 181.796 C 319.360 182.018, 321.187 181.670, 322.436 180.421 C 323.999 178.859, 323.976 178.627, 322.096 176.875 C 319.590 174.540, 318.576 174.556, 313.163 177.012 M 332 301.632 C 307.742 303.931, 272.172 313.021, 257 320.797 C 248.492 325.158, 247.481 326.648, 241.261 344 C 235.159 361.022, 233.973 368.821, 233.389 395.792 C 232.890 418.844, 232.978 420.478, 235.103 427.792 C 236.335 432.031, 237.436 435.632, 237.549 435.794 C 237.662 435.956, 242.197 435.198, 247.627 434.109 C 259.522 431.726, 286.570 428.995, 298.127 429.012 C 306.798 429.024, 314.882 430.644, 319.078 433.209 C 321.238 434.530, 323.295 434.464, 338.118 432.595 C 354.287 430.557, 354.815 430.416, 357.650 427.377 C 364.700 419.823, 380.348 414.976, 414 409.922 C 433.535 406.989, 450.788 406.902, 457.092 409.706 C 459.618 410.829, 462.639 413.089, 463.806 414.728 C 465.878 417.638, 466.058 417.688, 471.411 416.849 C 474.426 416.376, 480.405 414.664, 484.697 413.046 C 509.957 403.517, 510.491 403.271, 510.835 400.989 C 511.019 399.768, 510.681 398.281, 510.085 397.685 C 509.488 397.088, 508.997 395.002, 508.994 393.050 C 508.986 387.769, 507.127 382.035, 504.147 378.105 C 502.127 375.440, 501.914 374.769, 503.250 375.275 C 506.971 376.683, 504.755 373.978, 500.001 371.308 C 497.252 369.763, 495.002 367.782, 495.001 366.905 C 495 366.028, 494.063 364.462, 492.918 363.426 C 489.153 360.019, 479 343.797, 479 341.190 C 479 337.863, 471.043 322.144, 469.048 321.531 C 468.197 321.269, 458.725 318.828, 448 316.107 C 407.402 305.807, 383.409 302.028, 355.500 301.538 C 345.050 301.355, 334.475 301.397, 332 301.632 M 550.303 395.208 C 544.840 396.048, 543.643 396.664, 540.188 400.411 C 535.610 405.378, 532 414.226, 532 420.478 C 532 422.900, 531.597 425.131, 531.104 425.436 C 529.751 426.272, 527.658 442.405, 527.683 451.802 C 527.712 463.009, 526.248 461.039, 524.001 446.849 C 523.013 440.607, 522.158 436.602, 522.102 437.950 C 521.908 442.621, 519.942 438.479, 516.922 427.035 C 514.018 416.030, 512.523 412, 511.345 412 C 511.024 412, 506.704 415.861, 501.746 420.579 C 490.272 431.498, 484.185 435.476, 475.750 437.569 L 469 439.243 469 445.132 C 469 456.040, 464.031 462.974, 453.352 466.969 C 439.363 472.203, 409.406 477, 390.707 477 C 376.991 477, 372.869 475.344, 366.552 467.295 C 361.036 460.267, 355.382 448.753, 354.561 442.874 C 353.955 438.536, 353.698 438.213, 350.449 437.685 C 346.738 437.083, 331.453 438.443, 326.500 439.815 L 323.500 440.647 323.823 451.573 C 324.191 464.014, 321.961 473.517, 317.400 478.936 C 313.993 482.986, 302.238 488.645, 293 490.682 C 284.622 492.530, 258.837 493.089, 248.250 491.652 L 242 490.804 242 521.228 C 242 566.151, 243.777 578.563, 252.908 597.428 C 263.510 619.331, 290.633 654.247, 308.585 669.102 C 322.051 680.244, 330.277 685.107, 343.500 689.742 C 357.541 694.663, 389.701 693.730, 408.762 687.848 C 429.468 681.459, 448.834 666.055, 473.451 636.392 C 501.096 603.083, 522.220 563.787, 530.913 529.500 L 532.942 521.500 530.721 519.804 C 527.333 517.217, 529.496 515.869, 535 517.137 C 540.855 518.487, 554.869 517.760, 557.721 515.958 C 560.436 514.243, 561.649 511.192, 562.474 504 C 562.821 500.975, 565.097 492.605, 567.532 485.401 C 576.072 460.132, 577.286 449.153, 574.042 426.559 C 571.099 406.059, 567.756 396.998, 562.383 394.955 C 559.539 393.874, 558.887 393.888, 550.303 395.208 M 556.761 404.384 C 550.758 408.942, 548.044 427.298, 547.503 467 C 547.027 501.879, 548.110 502.997, 549.925 469.500 C 552.220 427.135, 555.496 407, 560.096 407 C 562.991 407, 564.810 411.849, 565.896 422.465 C 566.446 427.835, 567.144 432.477, 567.448 432.781 C 568.457 433.791, 568.007 414.564, 566.929 410.685 C 565.084 404.039, 560.751 401.354, 556.761 404.384 M 422.500 414.853 C 416.869 415.582, 417.362 416.425, 424 417.420 C 428.062 418.029, 437.913 421.908, 435.500 421.949 C 434.950 421.958, 431.125 421.081, 427 420 C 416.818 417.331, 408.284 417.450, 398.750 420.392 C 394.488 421.707, 391 422.618, 391 422.417 C 391 422.216, 392.392 421.332, 394.093 420.452 C 395.794 419.572, 396.920 418.587, 396.595 418.262 C 395.631 417.298, 380.007 421.161, 373.074 424.077 C 358.815 430.076, 356.583 435.252, 364 445.123 C 368.308 450.856, 368.969 454.271, 366.336 457.181 C 364.297 459.434, 365.358 461.862, 370.863 467.545 C 376.655 473.524, 379.772 474.454, 393.500 474.294 C 419.095 473.998, 454.753 466.267, 460.739 459.718 C 465.549 454.455, 466.091 451.917, 464.992 439.786 C 462.837 415.980, 461.633 414.734, 440.500 414.407 C 433.350 414.296, 425.250 414.497, 422.500 414.853 M 401.365 424.502 C 393.418 427.009, 385.930 432.301, 383.396 437.201 C 381.507 440.854, 382.078 441.645, 385.163 439.645 C 386.448 438.812, 389.738 437.572, 392.474 436.890 C 395.210 436.208, 396.898 435.466, 396.224 435.241 C 394.294 434.598, 394.792 432.259, 397.223 430.557 C 400.444 428.300, 401.825 428.633, 402.184 431.750 C 402.542 434.867, 401.131 434.749, 428.500 433.950 C 435.650 433.742, 442.512 433.923, 443.750 434.353 C 447.733 435.737, 446.244 433.111, 441.250 429.942 C 433.742 425.178, 425.213 422.985, 414.645 423.099 C 409.615 423.153, 403.639 423.785, 401.365 424.502 M 424.250 429.250 C 424.479 429.938, 425.267 430.500, 426 430.500 C 426.733 430.500, 427.521 429.938, 427.750 429.250 C 427.998 428.506, 427.289 428, 426 428 C 424.711 428, 424.002 428.506, 424.250 429.250 M 430 430 C 430 430.550, 430.450 431, 431 431 C 431.550 431, 432 430.550, 432 430 C 432 429.450, 431.550 429, 431 429 C 430.450 429, 430 429.450, 430 430 M 275.500 435.097 C 265.251 436.161, 248.727 438.761, 243.226 440.175 C 240.026 440.997, 239.072 441.679, 239.430 442.887 C 241.301 449.198, 242.994 464.506, 242.997 475.133 L 243 487.767 245.750 488.425 C 247.262 488.788, 255.370 489.351, 263.767 489.676 C 285.899 490.535, 299.688 487.881, 310.271 480.726 C 317.408 475.900, 321.595 465.958, 317.092 464.529 C 314.086 463.575, 313.838 461.247, 316.166 455.837 C 317.987 451.604, 318.103 450.669, 316.912 449.866 C 315.527 448.931, 309.943 449.238, 305 450.521 L 302.500 451.170 304.894 449.222 C 307.660 446.971, 306.982 445, 303.441 445 C 301.342 445, 301 445.466, 301 448.328 C 301 451.508, 300.774 451.709, 295.922 452.829 C 293.129 453.473, 288.467 454.280, 285.562 454.622 C 280.340 455.235, 280.268 455.207, 279.192 452.121 C 277.937 448.522, 276.527 448.146, 274.998 451.004 C 274.082 452.716, 274.328 453.191, 276.678 454.254 C 279.398 455.485, 279.371 455.507, 274.466 456.089 C 271.735 456.413, 268.712 457.024, 267.750 457.446 C 262.843 459.600, 269.408 449.319, 275.500 445.311 C 286.001 438.401, 302.138 438.416, 314.179 445.346 C 316.207 446.513, 318.186 447.147, 318.577 446.756 C 318.968 446.365, 318.654 444.347, 317.879 442.272 C 316.821 439.438, 315.364 437.940, 312.023 436.250 C 308.086 434.258, 306.195 434.015, 295.538 434.133 C 288.917 434.206, 279.900 434.640, 275.500 435.097 M 555.494 435.614 C 558.934 443.598, 560.196 449.151, 560.153 456.115 C 560.107 463.629, 557.975 475.310, 555.963 479.069 C 554.188 482.385, 556.694 481.233, 558.830 477.750 C 564.974 467.732, 565.737 450.715, 560.500 440.507 C 558.850 437.291, 556.866 434.449, 556.091 434.193 C 555.043 433.847, 554.890 434.211, 555.494 435.614 M 281.734 436.023 C 276.083 437.452, 267 442.597, 267 444.369 C 267 444.725, 269.363 443.684, 272.250 442.055 C 279.375 438.036, 289.608 436.475, 299.136 437.953 C 307.041 439.180, 308.837 438.840, 303.801 437.072 C 299.269 435.481, 286.312 434.865, 281.734 436.023 M 433.817 437.412 C 432.342 438.182, 429.760 439.114, 428.079 439.483 C 424.476 440.274, 422.992 442, 425.914 442 C 428.344 442, 437 437.940, 437 436.801 C 437 435.762, 436.968 435.768, 433.817 437.412 M 297 445.500 C 297 446.417, 297.484 447.005, 298.075 446.808 C 298.666 446.611, 299.150 446.022, 299.150 445.500 C 299.150 444.978, 298.666 444.389, 298.075 444.192 C 297.484 443.995, 297 444.583, 297 445.500 M 391.500 447.055 C 395.498 448.947, 401.262 449.754, 399.450 448.169 C 398.295 447.158, 390.804 444.969, 388.884 445.081 C 388.123 445.125, 389.300 446.014, 391.500 447.055 M 426 450.500 C 424.404 452.423, 426.032 452.443, 428.559 450.532 C 430.190 449.298, 430.240 449.059, 428.872 449.032 C 427.977 449.014, 426.685 449.675, 426 450.500 M 389.500 457 C 389.840 457.550, 390.568 458, 391.118 458 C 391.668 458, 391.840 457.550, 391.500 457 C 391.160 456.450, 390.432 456, 389.882 456 C 389.332 456, 389.160 456.450, 389.500 457 M 302.342 462.063 C 294.129 469.390, 294.005 469.557, 298.711 466.981 C 303.302 464.467, 309.718 458.385, 308.774 457.441 C 308.450 457.117, 305.556 459.197, 302.342 462.063 M 270 461.410 C 271.375 462.245, 274.277 462.945, 276.450 462.965 C 282.148 463.016, 279.677 461.255, 273 460.507 C 267.767 459.921, 267.621 459.964, 270 461.410 M 277.500 470.890 C 275.491 471.327, 274.916 471.804, 275.759 472.336 C 277.249 473.275, 281 472.270, 281 470.933 C 281 470.420, 280.887 470.053, 280.750 470.118 C 280.613 470.183, 279.150 470.530, 277.500 470.890 M 233.086 475.315 C 231.882 477.585, 231.876 478.394, 233.042 480.741 L 234.412 483.500 234.773 480.750 C 234.971 479.238, 234.990 476.796, 234.816 475.324 L 234.500 472.647 233.086 475.315 M 256.500 476 C 256.840 476.550, 257.316 477, 257.559 477 C 257.802 477, 258 476.550, 258 476 C 258 475.450, 257.523 475, 256.941 475 C 256.359 475, 256.160 475.450, 256.500 476 M 369 481.334 C 369 481.517, 371.500 483.390, 374.556 485.494 C 382.126 490.708, 388 497.529, 388 501.106 C 388 502.839, 386.801 505.296, 384.896 507.465 C 381.627 511.189, 382.028 512.148, 385.633 509.228 C 391.973 504.092, 391.490 497.706, 384.160 489.750 C 382.766 488.238, 382.160 487, 382.813 487 C 386.010 487, 383.293 485.166, 377.179 483.197 C 370.400 481.014, 369 480.695, 369 481.334 M 312.250 495.936 C 307.596 501.341, 307.152 502.262, 309.674 501.295 C 311.017 500.779, 311.189 501.032, 310.543 502.576 C 308.829 506.677, 308.707 514.904, 310.324 517.372 C 311.897 519.773, 318 522.670, 318 521.015 C 318 520.531, 317.088 519.845, 315.973 519.492 C 314.859 519.138, 313.226 517.748, 312.345 516.403 C 309.882 512.645, 311.083 507.193, 317.664 492.250 C 318.877 489.495, 316.267 491.272, 312.250 495.936 M 359.075 513.434 C 356.329 515.872, 351.948 519.118, 349.338 520.648 C 341.743 525.099, 333.425 524.123, 323.799 517.650 C 322.132 516.529, 320.308 516.085, 319.034 516.489 C 316.783 517.203, 317.203 519, 319.621 519 C 320.447 519, 324.468 520.631, 328.556 522.624 C 335.063 525.797, 336.679 526.191, 341.529 525.789 C 345.731 525.441, 348.089 524.569, 351.285 522.185 C 362.076 514.134, 366.062 511.801, 369.912 511.285 C 375.612 510.520, 375.028 509, 369.033 509 C 364.575 509, 363.556 509.454, 359.075 513.434 M 395.500 554.021 C 372.767 554.623, 372.401 554.667, 364 557.822 C 355.796 560.902, 355.132 560.991, 344.927 560.375 C 336.059 559.841, 333.766 560.017, 330.702 561.471 C 325.777 563.808, 317.997 570.774, 318.011 572.835 C 318.018 573.934, 320.313 575.480, 324.761 577.384 L 331.500 580.267 351.500 579.709 C 373.040 579.109, 386.138 577.310, 397.411 573.404 C 409.753 569.128, 424 559.824, 424 556.040 C 424 554.213, 421.868 552.818, 419.668 553.206 C 419.026 553.319, 408.150 553.686, 395.500 554.021 M 367 560.641 C 357.603 564.140, 357.376 564.171, 346 563.578 C 339.675 563.248, 333.889 563.377, 333.143 563.864 C 331.229 565.114, 332.526 570.207, 335.462 572.964 C 337.537 574.914, 338.762 575.152, 345.660 574.949 C 349.972 574.822, 354.331 575.072, 355.346 575.503 C 357.671 576.491, 375.180 575.369, 380.468 573.893 C 382.651 573.284, 384.901 572.216, 385.468 571.520 C 386.036 570.825, 388.750 569.716, 391.500 569.057 C 399.642 567.105, 404.725 564.433, 406.378 561.236 L 407.897 558.298 397.293 557.649 C 379.761 556.576, 377.254 556.824, 367 560.641" stroke="none" fill="black" fill-rule="evenodd"/>
</svg>