<svg enable-background="new 0 0 32 32" height="512" viewBox="0 0 32 32" width="512" xmlns="http://www.w3.org/2000/svg"><path d="m26 32h-20c-3.314 0-6-2.686-6-6v-20c0-3.314 2.686-6 6-6h20c3.314 0 6 2.686 6 6v20c0 3.314-2.686 6-6 6z" fill="#fff9dd"/><path d="m22.253 19.275c-1.008-.852-1.586-2.098-1.586-3.417v-1.858c0-2.346-1.743-4.288-4-4.613v-.72c0-.369-.299-.667-.667-.667s-.667.298-.667.667v.72c-2.258.325-4 2.267-4 4.613v1.859c0 1.319-.578 2.564-1.592 3.422-.259.222-.408.545-.408.886 0 .643.523 1.167 1.167 1.167h11c.643 0 1.167-.523 1.167-1.167 0-.341-.149-.664-.414-.892z" fill="#ffd200"/><path d="m16 24c1.207 0 2.217-.86 2.449-2h-4.899c.233 1.14 1.243 2 2.45 2z" fill="#ffe777"/></svg>