<svg enable-background="new 0 0 32 32" height="512" viewBox="0 0 32 32" width="512" xmlns="http://www.w3.org/2000/svg"><path d="m26 32h-20c-3.314 0-6-2.686-6-6v-20c0-3.314 2.686-6 6-6h20c3.314 0 6 2.686 6 6v20c0 3.314-2.686 6-6 6z" fill="#95c4f3"/><circle cx="16" cy="16" fill="#1976d2" r="3.333"/><path d="m16 22.667c-3.676 0-6.667-2.991-6.667-6.667s2.991-6.666 6.667-6.666 6.667 2.991 6.667 6.667-2.991 6.666-6.667 6.666zm0-12c-2.941 0-5.333 2.393-5.333 5.333s2.393 5.333 5.333 5.333 5.333-2.393 5.333-5.333-2.392-5.333-5.333-5.333z" fill="#1976d2"/><g fill="#1976d2"><path d="m16 11.334c-.368 0-.667-.299-.667-.667v-2c0-.368.299-.667.667-.667s.667.299.667.667v2c0 .368-.298.667-.667.667z"/><path d="m16 24c-.368 0-.667-.299-.667-.667v-2c0-.368.298-.667.667-.667.368 0 .667.299.667.667v2c0 .369-.298.667-.667.667z"/><path d="m10.667 16.667h-2c-.369 0-.667-.299-.667-.667s.298-.667.667-.667h2c.368 0 .667.299.667.667s-.299.667-.667.667z"/><path d="m23.333 16.667h-2c-.368 0-.667-.299-.667-.667s.298-.667.667-.667h2c.369.001.667.299.667.667s-.298.667-.667.667z"/></g></svg>