<svg width="288" height="120" viewBox="0 0 288 120" fill="none" xmlns="http://www.w3.org/2000/svg">
<g filter="url(#filter0_i)">
<path d="M42.729 4.92188C19.162 4.92188 0 24.3238 0 48.1841C0 82.0788 38.7049 117.073 40.3637 118.579C41.0163 119.16 41.8576 119.48 42.729 119.48C43.6004 119.48 44.4416 119.16 45.0943 118.579C46.7592 117.073 85.4641 82.0788 85.4641 48.1841C85.4641 24.3238 66.2959 4.92188 42.729 4.92188ZM56.589 44.9175L40.5603 70.4883C40.3132 70.8719 39.9735 71.1864 39.5727 71.4024C39.172 71.6184 38.7234 71.7288 38.2687 71.7233C37.9735 71.7258 37.6802 71.6756 37.4024 71.5751C36.8335 71.4034 36.343 71.0357 36.0171 70.5365C35.6912 70.0373 35.5509 69.4386 35.6208 68.8457L37.9124 51.2654H31.1544C30.6745 51.2685 30.2025 51.1431 29.7869 50.9022C29.3712 50.6613 29.0268 50.3135 28.7891 49.8946C28.5651 49.4831 28.4624 49.016 28.4928 48.548C28.5233 48.0799 28.6857 47.6303 28.9611 47.2516L44.9837 25.1018C45.343 24.624 45.8464 24.2756 46.4188 24.1087C46.9912 23.9418 47.6019 23.9652 48.1599 24.1756C48.71 24.372 49.1756 24.7535 49.4779 25.2554C49.7802 25.7573 49.9006 26.3487 49.8187 26.9296L47.6132 41.0396H54.2974C54.7633 41.0341 55.2225 41.1508 55.6298 41.3782C56.037 41.6056 56.3783 41.9359 56.6197 42.3363C56.8553 42.724 56.98 43.1695 56.98 43.6238C56.98 44.0781 56.8553 44.5236 56.6197 44.9113L56.589 44.9175Z" fill="white"/>
</g>
<path d="M101.657 56V31.5246H107.856V33.7124C108.707 32.8312 109.808 32.1627 111.16 31.7069C112.528 31.236 113.834 31.0005 115.08 31.0005C118.346 31.0005 120.587 32.0108 121.803 34.0314C123.823 32.0108 126.535 31.0005 129.938 31.0005C132.278 31.0005 134.154 31.6386 135.567 32.9147C136.995 34.1757 137.709 35.8393 137.709 37.9055V56H131.511V38.6348C131.511 37.4498 131.199 36.6445 130.577 36.2191C129.969 35.7786 129.08 35.5583 127.91 35.5583C126.756 35.5583 125.639 35.8621 124.56 36.4698C123.497 37.0775 122.919 37.8903 122.828 38.9083V56H116.63V38.6348C116.63 37.4498 116.303 36.6445 115.65 36.2191C114.996 35.7786 114.07 35.5583 112.869 35.5583C111.684 35.5583 110.553 35.8849 109.474 36.5382C108.395 37.1763 107.856 38.0499 107.856 39.1589V56H101.657ZM144.956 28.0379V22.5457H151.155V28.0379H144.956ZM144.956 56V31.5246H151.155V56H144.956ZM155.622 56L164.054 43.6939L155.644 31.5246H162.117L167.198 39.1817L172.28 31.5246H178.593L170.389 43.7851L178.639 56H172.463L167.312 48.2973L162.208 56H155.622Z" fill="#F5F5F5"/>
<path d="M110.897 97.4194C107.499 97.4194 105.041 96.712 103.524 95.2973C102.007 93.8826 101.249 91.7021 101.249 88.7559V80.6832C101.249 78.3933 102.029 76.5921 103.59 75.2794C105.15 73.9668 107.506 73.3105 110.656 73.3105C113.821 73.3105 116.169 73.923 117.701 75.1482C119.247 76.3587 120.02 78.0943 120.02 80.355V85.8681H105.362V89.1279C105.362 91.0531 105.748 92.3949 106.521 93.1533C107.294 93.8971 108.687 94.2691 110.7 94.2691C112.713 94.2691 113.85 94.2253 114.113 94.1378C114.375 94.0503 114.645 93.9482 114.922 93.8315C115.199 93.7148 115.389 93.5763 115.491 93.4158C115.608 93.2554 115.754 93.0148 115.929 92.6939C116.118 92.3584 116.257 91.7167 116.344 90.7687H119.976C119.83 92.1542 119.582 93.27 119.232 94.1159C118.897 94.9618 118.357 95.64 117.613 96.1505C116.884 96.6464 116.002 96.9819 114.966 97.1569C113.945 97.3319 112.589 97.4194 110.897 97.4194ZM105.362 83.0897H116.038V79.9175C116.038 78.6048 115.586 77.7005 114.682 77.2047C113.792 76.7088 112.479 76.4608 110.744 76.4608C109.008 76.4608 107.674 76.7598 106.74 77.3578C105.821 77.9558 105.362 78.9403 105.362 80.3113V83.0897ZM142.203 79.8518C142.203 77.5912 140.475 76.4608 137.019 76.4608C135.312 76.4608 133.97 76.8254 132.993 77.5547C132.016 78.2839 131.527 79.2393 131.527 80.4206V96.9381H127.414V73.748H131.527V76.0014C133.073 74.2074 135.363 73.3105 138.397 73.3105C142.335 73.3105 144.829 74.696 145.879 77.4672C146.171 78.2548 146.316 79.1299 146.316 80.0925V96.9381H142.203V79.8518ZM164.956 97.1131C161.718 97.1131 159.377 96.6027 157.933 95.5817C156.504 94.5608 155.789 92.8033 155.789 90.3092V76.8546H151.917V73.748H155.943L156.446 66.5722H159.902V73.748H165.722V76.8546H159.902V90.0467C159.902 91.5052 160.318 92.4751 161.149 92.9564C161.995 93.4231 163.461 93.6565 165.547 93.6565H166.006L165.569 97.1131H164.956ZM172.613 96.9381V73.748H176.726V77.0296C177.251 75.6003 178.673 74.5648 180.992 73.923C182.203 73.573 183.464 73.4053 184.777 73.4199L184.646 76.9421C182.662 76.9421 180.846 77.3359 179.198 78.1235C177.55 78.9111 176.726 79.7716 176.726 80.705V96.9381H172.613ZM198.8 97.4194C195.402 97.4194 192.945 96.712 191.428 95.2973C189.911 93.8826 189.152 91.7021 189.152 88.7559V80.6832C189.152 78.3933 189.933 76.5921 191.493 75.2794C193.054 73.9668 195.409 73.3105 198.56 73.3105C201.725 73.3105 204.073 73.923 205.604 75.1482C207.15 76.3587 207.923 78.0943 207.923 80.355V85.8681H193.265V89.1279C193.265 91.0531 193.652 92.3949 194.425 93.1533C195.198 93.8971 196.591 94.2691 198.604 94.2691C200.616 94.2691 201.754 94.2253 202.016 94.1378C202.279 94.0503 202.549 93.9482 202.826 93.8315C203.103 93.7148 203.293 93.5763 203.395 93.4158C203.511 93.2554 203.657 93.0148 203.832 92.6939C204.022 92.3584 204.16 91.7167 204.248 90.7687H207.88C207.734 92.1542 207.486 93.27 207.136 94.1159C206.8 94.9618 206.261 95.64 205.517 96.1505C204.788 96.6464 203.905 96.9819 202.87 97.1569C201.849 97.3319 200.492 97.4194 198.8 97.4194ZM193.265 83.0897H203.942V79.9175C203.942 78.6048 203.489 77.7005 202.585 77.2047C201.696 76.7088 200.383 76.4608 198.647 76.4608C196.912 76.4608 195.577 76.7598 194.644 77.3578C193.725 77.9558 193.265 78.9403 193.265 80.3113V83.0897ZM217.703 101.904C219.219 102.459 221.079 102.736 223.281 102.736C225.484 102.736 227.022 102.32 227.897 101.489C228.787 100.657 229.232 99.3665 229.232 97.6163V94.4003C228.634 94.9546 227.737 95.3702 226.541 95.6473C225.36 95.9245 224.273 96.063 223.281 96.063C217.418 96.063 214.487 93.5909 214.487 88.6466V81.0113C214.487 78.6048 215.216 76.7234 216.674 75.367C218.147 73.996 220.35 73.3105 223.281 73.3105C224.448 73.3105 225.644 73.5584 226.869 74.0543C228.109 74.5356 228.896 75.0534 229.232 75.6076V73.748H233.345V96.3912C233.345 99.1769 232.608 101.452 231.135 103.217C229.677 104.982 227.314 105.864 224.047 105.864C220.78 105.864 218.359 105.572 216.784 104.989L217.703 101.904ZM229.232 79.6549C229.232 77.5255 227.46 76.4608 223.916 76.4608C220.372 76.4608 218.6 77.8318 218.6 80.5738V89.281C218.6 91.7021 220.372 92.9127 223.916 92.9127C226.001 92.9127 227.773 92.3293 229.232 91.1625V79.6549ZM247.5 97.4194C245.151 97.4194 243.328 96.785 242.03 95.5161C240.732 94.2326 240.083 92.6428 240.083 90.7468C240.083 89.6675 240.309 88.7705 240.761 88.0559C241.68 86.5974 244.422 85.2045 248.987 83.8773C251.627 83.148 253.144 82.5209 253.538 81.9958C253.946 81.4708 254.172 81.0624 254.216 80.7707C254.26 80.4644 254.282 79.9831 254.282 79.3268C254.282 78.6704 254.012 78.0287 253.472 77.4016C252.947 76.7744 251.795 76.4608 250.016 76.4608C247.507 76.4608 245.968 76.9421 245.399 77.9047C245.108 78.4006 244.962 79.0715 244.962 79.9175V80.9457H241.002V79.8956C241.002 77.6349 241.753 75.9722 243.255 74.9075C244.772 73.8428 247.033 73.3105 250.037 73.3105C253.042 73.3105 255.186 73.996 256.469 75.367C257.753 76.7234 258.395 78.6632 258.395 81.1864V91.075C258.395 92.2855 258.548 93.0731 258.854 93.4377C259.16 93.7878 259.817 93.9628 260.823 93.9628L260.342 97.1131H259.51C258.052 97.1131 256.965 96.836 256.251 96.2818C255.536 95.713 254.989 94.8379 254.61 93.6565C253.399 95.465 251.941 96.6027 250.234 97.0694C249.418 97.3027 248.506 97.4194 247.5 97.4194ZM249.556 86.6995C247.485 87.2975 246.048 87.8954 245.246 88.4934C244.459 89.0914 244.065 89.9373 244.065 91.0312C244.065 92.1105 244.429 92.9272 245.159 93.4815C245.903 94.0357 246.792 94.3128 247.828 94.3128C248.878 94.3128 249.826 94.1816 250.672 93.919C251.518 93.6419 252.276 93.2408 252.947 92.7158C253.633 92.1761 254.077 91.5636 254.282 90.8781V84.1836C253.217 85.2483 251.642 86.0869 249.556 86.6995ZM273.84 94.2691C276.947 94.2691 278.5 93.1096 278.5 90.7905C278.5 89.7842 278.361 89.0404 278.084 88.5591C277.807 88.0632 277.158 87.6256 276.137 87.2464L270.624 85.2118C268.932 84.6138 267.751 83.9064 267.08 83.0897C266.424 82.2583 266.095 81.2228 266.095 79.9831C266.095 78.7434 266.219 77.7516 266.467 77.0078C266.715 76.2493 267.124 75.5857 267.692 75.0169C268.83 73.8793 270.872 73.3105 273.818 73.3105C276.764 73.3105 279.302 73.7334 281.432 74.5794L280.491 77.7297C279.747 77.4234 278.77 77.139 277.559 76.8765C276.349 76.5994 275.291 76.4608 274.387 76.4608C272.301 76.4608 270.981 76.7963 270.427 77.4672C270.092 77.8902 269.924 78.51 269.924 79.3268C269.924 80.1435 270.055 80.7269 270.318 81.077C270.595 81.4124 271.127 81.7187 271.915 81.9958L277.362 84.1398C279.258 84.8836 280.505 85.7077 281.103 86.612C281.701 87.5016 282 88.9091 282 90.8343C282 92.7595 281.38 94.342 280.141 95.5817C278.901 96.8068 276.983 97.4194 274.387 97.4194C272.491 97.4194 270.806 97.2152 269.333 96.8068C267.86 96.3985 266.73 95.9755 265.942 95.538L266.949 92.5189C269.034 93.6857 271.331 94.2691 273.84 94.2691Z" fill="#F5F5F5"/>
<defs>
<filter id="filter0_i" x="0" y="4.92188" width="85.4641" height="118.292" filterUnits="userSpaceOnUse" color-interpolation-filters="sRGB">
<feFlood flood-opacity="0" result="BackgroundImageFix"/>
<feBlend mode="normal" in="SourceGraphic" in2="BackgroundImageFix" result="shape"/>
<feColorMatrix in="SourceAlpha" type="matrix" values="0 0 0 0 0 0 0 0 0 0 0 0 0 0 0 0 0 0 127 0" result="hardAlpha"/>
<feOffset dy="3.73375"/>
<feGaussianBlur stdDeviation="1.86688"/>
<feComposite in2="hardAlpha" operator="arithmetic" k2="-1" k3="1"/>
<feColorMatrix type="matrix" values="0 0 0 0 0 0 0 0 0 0 0 0 0 0 0 0 0 0 0.25 0"/>
<feBlend mode="normal" in2="shape" result="effect1_innerShadow"/>
</filter>
</defs>
</svg>
